<?xml version="1.0" standalone="no"?>
<!DOCTYPE svg PUBLIC "-//W3C//DTD SVG 20010904//EN"
 "http://www.w3.org/TR/2001/REC-SVG-20010904/DTD/svg10.dtd">
<svg version="1.0" xmlns="http://www.w3.org/2000/svg"
 width="500.000000pt" height="500.000000pt" viewBox="0 0 500.000000 500.000000"
 preserveAspectRatio="xMidYMid meet">
<metadata>
Created by potrace 1.14, written by Peter Selinger 2001-2017
</metadata>
<g transform="translate(0.000000,500.000000) scale(0.100000,-0.100000)"
fill="#000000" stroke="none">
<path d="M3727 3334 c-1 -1 -19 -5 -40 -8 -113 -18 -248 -72 -344 -137 -104
-71 -222 -211 -273 -326 l-23 -51 -559 0 -560 0 -11 27 c-19 43 -82 133 -128
182 -187 198 -429 285 -704 255 -280 -31 -552 -249 -652 -524 -14 -37 -27 -80
-30 -97 -3 -16 -8 -49 -13 -73 -8 -46 -6 -190 5 -256 3 -22 17 -73 31 -114 94
-282 340 -491 637 -542 82 -15 222 -8 327 15 62 13 183 67 251 111 84 56 203
181 253 267 l39 67 581 0 581 0 30 -48 c45 -71 160 -187 234 -236 141 -94 296
-137 466 -131 55 2 114 6 130 9 172 36 305 108 424 228 168 169 244 365 235
608 -9 261 -146 498 -374 646 -100 64 -190 99 -318 120 -32 5 -191 12 -195 8z"/>
</g>
</svg>
